<svg xmlns="http://www.w3.org/2000/svg" xmlns:xlink="http://www.w3.org/1999/xlink" width="194.999" height="292.63" viewBox="0 0 194.999 292.63"><defs><radialGradient id="a" cx="0.159" cy="0.324" r="1.128" gradientTransform="translate(0 -0.361) scale(1 2.113)" gradientUnits="objectBoundingBox"><stop offset="0" stop-color="#46a3f6"/><stop offset="0.245" stop-color="#4e99fa"/><stop offset="0.744" stop-color="#5c7afd"/><stop offset="1" stop-color="#606cff"/></radialGradient></defs><path d="M-1639.5,292.63a97.766,97.766,0,0,1-25.726-3.429,96.968,96.968,0,0,1-23.145-9.682l.054-.01.044-.008.014,0a47.818,47.818,0,0,0,11.078,1.3,60.65,60.65,0,0,0,11.192-1.161l.786-.141a78.048,78.048,0,0,0,15.108-5.706,86.535,86.535,0,0,0,14.134-8.935,72.389,72.389,0,0,0,12.509-12.487,94.158,94.158,0,0,0,10.235-16.364,82.02,82.02,0,0,0,6.824-20.938,139.475,139.475,0,0,0,2.274-26.214V48.671c17.245,30.006,31.214,56.747,41.52,79.481,13.668,30.151,20.6,52.693,20.6,67a98.2,98.2,0,0,1-1.981,19.645,96.964,96.964,0,0,1-5.681,18.3,97.458,97.458,0,0,1-8.99,16.558,98.218,98.218,0,0,1-11.905,14.427,98.169,98.169,0,0,1-14.43,11.9,97.456,97.456,0,0,1-16.562,8.987,97.093,97.093,0,0,1-18.3,5.681A98.252,98.252,0,0,1-1639.5,292.63Zm-54.3-47.8a47.324,47.324,0,0,1-15.7-2.476,36.072,36.072,0,0,1-12.455-7.429,42.845,42.845,0,0,1-8.806-11.389,56.317,56.317,0,0,1-5.309-14.864,98.7,98.7,0,0,1-.931-13.524,83.136,83.136,0,0,1,3.042-20.057,225.924,225.924,0,0,1,8.2-24.825c6.237-16.086,15.1-35.228,26.349-56.894,19.861-38.262,42.168-74.926,53.7-93.376V175.5a185.431,185.431,0,0,1-1.733,25.407,65.91,65.91,0,0,1-6.931,22.177,42.688,42.688,0,0,1-6.228,8.774,43.3,43.3,0,0,1-8.285,6.944,35.184,35.184,0,0,1-10.885,4.522A60.009,60.009,0,0,1-1693.795,244.834Zm-22.027-32.337a17.056,17.056,0,0,0,1.792,7.608,19.619,19.619,0,0,0,4.888,6.213,23.264,23.264,0,0,0,7.25,4.189,25.966,25.966,0,0,0,8.877,1.536,25.968,25.968,0,0,0,8.878-1.536,23.262,23.262,0,0,0,7.25-4.189,19.616,19.616,0,0,0,4.888-6.213,17.056,17.056,0,0,0,1.792-7.608Z" transform="translate(1736.999)" fill="url(#a)"/></svg>
