<svg xmlns="http://www.w3.org/2000/svg" xmlns:xlink="http://www.w3.org/1999/xlink" width="132.14" height="132.552" viewBox="0 0 132.14 132.552"><defs>
  <style>.a{fill:none;stroke:#fff;stroke-width:3px;}.b{fill:#fff;}.c{filter:url(#c);}.d{filter:url(#a);}</style>
<filter id="a" x="3.927" y="0" width="124.008" height="124.008" filterUnits="userSpaceOnUse"><feOffset dy="3" input="SourceAlpha"/><feGaussianBlur stdDeviation="3" result="b"/><feFlood flood-opacity="0.161"/><feComposite operator="in" in2="b"/><feComposite in="SourceGraphic"/></filter><filter id="c" x="0" y="0.413" width="132.14" height="132.139" filterUnits="userSpaceOnUse"><feOffset dy="12" input="SourceAlpha"/><feGaussianBlur stdDeviation="15" result="d"/><feFlood flood-opacity="0.161"/><feComposite operator="in" in2="d"/><feComposite in="SourceGraphic"/></filter></defs><g transform="translate(14.427 7.5)"><g class="d" transform="matrix(1, 0, 0, 1, -14.43, -7.5)"><path class="a" d="M51.5,0A51.5,51.5,0,1,1,0,51.5,51.5,51.5,0,0,1,51.5,0Z" transform="translate(14.43 7.5)"/>
</g>
<g class="c" transform="matrix(1, 0, 0, 1, -14.43, -7.5)"><path class="b" d="M9.433,42.14H.7V14.006H9.433ZM5.06,10.168a5.084,5.084,0,1,1,5.06-5.108A5.1,5.1,0,0,1,5.06,10.168ZM42.13,42.14H33.413v-13.7c0-3.264-.066-7.45-4.542-7.45-4.542,0-5.238,3.546-5.238,7.215V42.14H14.905V14.006h8.379v3.838h.122A9.18,9.18,0,0,1,31.673,13.3c8.842,0,10.467,5.822,10.467,13.385V42.14Z" transform="translate(45 33.41)"/>
</g>
</g>
</svg>
