<svg xmlns="http://www.w3.org/2000/svg" xmlns:xlink="http://www.w3.org/1999/xlink" width="350" height="45" viewBox="0 0 433.239 152.721"><defs><style>.a{fill:#fff;}.b{fill:url(#c);}.c{filter:url(#a);}</style><filter id="a" x="0" y="0" width="433.239" height="152.721" filterUnits="userSpaceOnUse"><feOffset dy="12" input="SourceAlpha"/>
<feGaussianBlur stdDeviation="15" result="b"/><feFlood flood-opacity="0.161"/><feComposite operator="in" in2="b"/><feComposite in="SourceGraphic"/></filter><radialGradient id="c" cx="0.159" cy="0.324" r="1.128" gradientTransform="translate(0 -0.361) scale(1 2.113)" gradientUnits="objectBoundingBox"><stop offset="0" stop-color="#46a3f6"/>
<stop offset="0.245" stop-color="#4e99fa"/><stop offset="0.744" stop-color="#5c7afd"/><stop offset="1" stop-color="#606cff"/></radialGradient></defs><g transform="translate(-743.38 -5188.76)"><g class="c" transform="matrix(1, 0, 0, 1, 743.38, 5188.76)"><path class="a" d="M-14516.638,32.22A31.361,31.361,0,0,1-14548,.862a31.364,31.364,0,0,1,31.362-31.362h280.519A31.361,31.361,0,0,1-14204.761.862a31.358,31.358,0,0,1-31.358,31.359Z" transform="translate(14593 63.5)"/>
</g><path class="b" d="M-13812.38-10.32h19.24v5.76h-13V.72h12.279V6.48h-12.279v5.76h13.72V18h-19.96Zm24.2,8.88h5.76V1.2h.08a4.856,4.856,0,0,1,.8-1.12,5.809,5.809,0,0,1,1.24-1,7.078,7.078,0,0,1,1.64-.72,6.842,6.842,0,0,1,2-.28,7.594,7.594,0,0,1,3.62.84,5.316,5.316,0,0,1,2.38,2.64,6.484,6.484,0,0,1,2.521-2.68,7.57,7.57,0,0,1,3.64-.8,7.426,7.426,0,0,1,3.3.66,5.394,5.394,0,0,1,2.12,1.8,7.58,7.58,0,0,1,1.12,2.68,15.294,15.294,0,0,1,.34,3.3V18h-6V6.68a4.512,4.512,0,0,0-.58-2.34,2.192,2.192,0,0,0-2.06-.98,3.969,3.969,0,0,0-1.74.34,2.867,2.867,0,0,0-1.12.94,3.906,3.906,0,0,0-.6,1.4,7.627,7.627,0,0,0-.181,1.68V18h-6V7.72q0-.52-.04-1.28a5.094,5.094,0,0,0-.279-1.44,2.754,2.754,0,0,0-.78-1.16,2.309,2.309,0,0,0-1.58-.48,3.7,3.7,0,0,0-1.88.42,2.856,2.856,0,0,0-1.1,1.12,4.547,4.547,0,0,0-.5,1.58,13.6,13.6,0,0,0-.12,1.84V18h-6Zm47,17h-.08a5.645,5.645,0,0,1-2.66,2.24,9.143,9.143,0,0,1-3.5.68,9.021,9.021,0,0,1-2.62-.38,6.609,6.609,0,0,1-2.22-1.14,5.507,5.507,0,0,1-1.521-1.88,5.746,5.746,0,0,1-.56-2.6,5.953,5.953,0,0,1,.62-2.84,5.541,5.541,0,0,1,1.68-1.92,8.352,8.352,0,0,1,2.42-1.18,17.676,17.676,0,0,1,2.82-.62,26.913,26.913,0,0,1,2.92-.24q1.46-.04,2.7-.04a3.118,3.118,0,0,0-1.141-2.54,4.11,4.11,0,0,0-2.7-.94,5.872,5.872,0,0,0-2.7.62,7.384,7.384,0,0,0-2.181,1.7l-3.2-3.28a11,11,0,0,1,3.92-2.34,14.009,14.009,0,0,1,4.64-.78,12.129,12.129,0,0,1,4.34.66,6.306,6.306,0,0,1,2.72,1.94,7.48,7.48,0,0,1,1.421,3.14,20.614,20.614,0,0,1,.4,4.3V18h-5.52Zm-1.48-6.08q-.68,0-1.7.06a8.62,8.62,0,0,0-1.96.34,4.361,4.361,0,0,0-1.6.84,1.934,1.934,0,0,0-.66,1.56,1.716,1.716,0,0,0,.92,1.6,3.85,3.85,0,0,0,1.92.52,6.022,6.022,0,0,0,1.7-.24,5.068,5.068,0,0,0,1.46-.68,3.293,3.293,0,0,0,1.021-1.12,3.232,3.232,0,0,0,.38-1.6V9.48Zm10.84-10.92h6V18h-6Zm-.479-6.12a3.353,3.353,0,0,1,1.02-2.46,3.354,3.354,0,0,1,2.46-1.02,3.352,3.352,0,0,1,2.46,1.02,3.35,3.35,0,0,1,1.021,2.46,3.35,3.35,0,0,1-1.021,2.46,3.352,3.352,0,0,1-2.46,1.02,3.354,3.354,0,0,1-2.46-1.02A3.353,3.353,0,0,1-13732.3-7.56Zm10.88-4.68h6V18h-6Zm22.16,10.8h5.76V1.2h.08a4.856,4.856,0,0,1,.8-1.12,5.809,5.809,0,0,1,1.24-1,7.078,7.078,0,0,1,1.64-.72,6.842,6.842,0,0,1,2-.28,7.592,7.592,0,0,1,3.62.84,5.316,5.316,0,0,1,2.38,2.64,6.484,6.484,0,0,1,2.521-2.68,7.572,7.572,0,0,1,3.64-.8,7.423,7.423,0,0,1,3.3.66,5.394,5.394,0,0,1,2.12,1.8,7.58,7.58,0,0,1,1.12,2.68,15.294,15.294,0,0,1,.34,3.3V18h-6V6.68a4.512,4.512,0,0,0-.58-2.34,2.192,2.192,0,0,0-2.06-.98,3.969,3.969,0,0,0-1.74.34,2.867,2.867,0,0,0-1.12.94,3.906,3.906,0,0,0-.6,1.4,7.627,7.627,0,0,0-.181,1.68V18h-6V7.72q0-.52-.039-1.28a5.129,5.129,0,0,0-.28-1.44,2.754,2.754,0,0,0-.78-1.16,2.309,2.309,0,0,0-1.58-.48,3.7,3.7,0,0,0-1.88.42,2.862,2.862,0,0,0-1.1,1.12,4.568,4.568,0,0,0-.5,1.58,13.6,13.6,0,0,0-.12,1.84V18h-6Zm53.2,16.08a9.575,9.575,0,0,1-3.641,2.84,10.9,10.9,0,0,1-4.56,1,12.259,12.259,0,0,1-4.221-.72,10.164,10.164,0,0,1-3.439-2.06,9.657,9.657,0,0,1-2.3-3.22,10.176,10.176,0,0,1-.84-4.2,10.176,10.176,0,0,1,.84-4.2,9.657,9.657,0,0,1,2.3-3.22,10.164,10.164,0,0,1,3.439-2.06,12.259,12.259,0,0,1,4.221-.72,9.594,9.594,0,0,1,3.779.72A7.874,7.874,0,0,1-13647.6.86a9.39,9.39,0,0,1,1.819,3.22,12.976,12.976,0,0,1,.641,4.2v1.88h-13.92a4.745,4.745,0,0,0,1.56,2.74,4.413,4.413,0,0,0,2.96,1.02,4.507,4.507,0,0,0,2.5-.66,6.73,6.73,0,0,0,1.78-1.7Zm-5.08-8.56a3.474,3.474,0,0,0-1-2.6,3.557,3.557,0,0,0-2.681-1.08,4.508,4.508,0,0,0-1.76.32,4.412,4.412,0,0,0-1.3.82,3.591,3.591,0,0,0-.84,1.16,3.809,3.809,0,0,0-.34,1.38Z" transform="translate(14688.76 5250)"/>
</g>
</svg>
