<svg xmlns="http://www.w3.org/2000/svg" xmlns:xlink="http://www.w3.org/1999/xlink" width="144.18" height="11" viewBox="330 0 144.18 132.479"><defs><style>.a{fill:none;stroke:#fff;stroke-width:3px;}.b{fill:#fff;}.c{filter:url(#c);}.d{filter:url(#a);}</style><filter id="a" x="9.63" y="0" width="124" height="124" filterUnits="userSpaceOnUse"><feOffset dy="3" input="SourceAlpha"/><feGaussianBlur stdDeviation="3" result="b"/><feFlood flood-opacity="0.161"/><feComposite operator="in" in2="b"/><feComposite in="SourceGraphic"/></filter><filter id="c" x="0" y="8.513" width="144.18" height="123.965" filterUnits="userSpaceOnUse"><feOffset dy="12" input="SourceAlpha"/><feGaussianBlur stdDeviation="15" result="d"/><feFlood flood-opacity="0.161"/><feComposite operator="in" in2="d"/><feComposite in="SourceGraphic"/></filter></defs><g transform="translate(20.055 7.5)"><g class="d" transform="matrix(1, 0, 0, 1, -20.06, -7.5)"><circle class="a" cx="51.5" cy="51.5" r="51.5" transform="translate(20.13 7.5)"/></g><g class="c" transform="matrix(1, 0, 0, 1, -20.06, -7.5)"><path class="b" d="M21.822,20.521c2.991-1.43,4.553-3.593,4.553-6.961,0-6.641-4.948-8.259-10.657-8.259H0V38.637H16.16c6.058,0,11.748-2.907,11.748-9.679,0-4.186-1.985-7.28-6.086-8.437ZM7.327,10.992H14.2c2.643,0,5.023.743,5.023,3.81,0,2.831-1.853,3.969-4.468,3.969H7.327V10.992Zm7.835,21.982H7.327v-9.18h7.986c3.226,0,5.267,1.345,5.267,4.76,0,3.367-2.436,4.421-5.418,4.421ZM48.884,10.334H35.367V7.051H48.884v3.283Zm5.3,16.583c0-7.139-4.176-13.093-11.748-13.093-7.356,0-12.35,5.531-12.35,12.774,0,7.516,4.731,12.67,12.35,12.67,5.766,0,9.5-2.6,11.3-8.118H47.878c-.63,2.06-3.226,3.151-5.239,3.151-3.885,0-5.926-2.276-5.926-6.142H54.123C54.151,27.764,54.18,27.34,54.18,26.917ZM36.722,23.982a5.181,5.181,0,0,1,5.5-5.155c3.33,0,5,1.956,5.286,5.155Z" transform="translate(45 36.21)"/></g>
</g>
</svg>
