<svg xmlns="http://www.w3.org/2000/svg" xmlns:xlink="http://www.w3.org/1999/xlink" width="223.72" height="18" viewBox="183 0 223.72 47.4"><defs><style>.a{fill:url(#a);}</style><radialGradient id="a" cx="0.159" cy="0.324" r="1.128" gradientTransform="translate(0 -0.361) scale(1 2.113)" gradientUnits="objectBoundingBox"><stop offset="0" stop-color="#46a3f6"/><stop offset="0.245" stop-color="#4e99fa"/><stop offset="0.744" stop-color="#5c7afd"/><stop offset="1" stop-color="#606cff"/></radialGradient></defs><path class="a" d="M-13705,34.5v-4h138v4Zm158.978-9.479a5.91,5.91,0,0,1-1.139-.28l.4-3.322a6.257,6.257,0,0,0,.72.221,3.132,3.132,0,0,0,.759.1,2.226,2.226,0,0,0,2.062-.94,5.272,5.272,0,0,0,.578-2.739V-3.462h3.6V18.22c0,.479-.033,1.113-.1,1.9a6.323,6.323,0,0,1-.642,2.282,4.91,4.91,0,0,1-1.722,1.9,5.9,5.9,0,0,1-3.34.8A8.948,8.948,0,0,1-13546.021,25.022Zm58.04-9.622a3.929,3.929,0,0,1-1.678-1.5,4.828,4.828,0,0,1-.641-2.061q-.1-1.139-.1-2.3V-.339h-4.163V-3.462h4.163v-5.32h3.6v5.32h5.162V-.339h-5.162v8.6c0,.535.015,1.062.041,1.582a4.133,4.133,0,0,0,.3,1.4,2.272,2.272,0,0,0,.8,1,2.715,2.715,0,0,0,1.577.38,7.836,7.836,0,0,0,1.32-.118,3.868,3.868,0,0,0,1.242-.442V15.34a4.765,4.765,0,0,1-1.663.5,12.489,12.489,0,0,1-1.577.136A7.257,7.257,0,0,1-13487.981,15.4Zm-18.12-.14a9.291,9.291,0,0,1-3.138-2.02,8.965,8.965,0,0,1-2.042-3.119A10.85,10.85,0,0,1-13512,6.1a11,11,0,0,1,.719-4.041,9.264,9.264,0,0,1,2.021-3.16,9.157,9.157,0,0,1,3.119-2.061,10.7,10.7,0,0,1,4.063-.741,10.84,10.84,0,0,1,3.978.741,8.734,8.734,0,0,1,3.3,2.26l-2.717,2.481a7.618,7.618,0,0,0-2.1-1.582,5.876,5.876,0,0,0-2.621-.538,5.785,5.785,0,0,0-2.581.538,5.349,5.349,0,0,0-1.84,1.478,6.689,6.689,0,0,0-1.117,2.16,8.492,8.492,0,0,0-.379,2.54,7.048,7.048,0,0,0,.438,2.5,6.349,6.349,0,0,0,1.238,2.061,5.734,5.734,0,0,0,1.921,1.379,6.09,6.09,0,0,0,2.521.5,5.783,5.783,0,0,0,2.6-.538,6.688,6.688,0,0,0,2-1.582l2.563,2.562a8.082,8.082,0,0,1-3.263,2.238,11.367,11.367,0,0,1-3.937.678A10.786,10.786,0,0,1-13506.1,15.259Zm-22.64-.041a8.837,8.837,0,0,1-3.079-2.1,9.336,9.336,0,0,1-1.938-3.16,11.177,11.177,0,0,1-.683-3.941,10.341,10.341,0,0,1,.741-3.941,9.777,9.777,0,0,1,2.039-3.16,9.418,9.418,0,0,1,3.1-2.1,10.012,10.012,0,0,1,3.923-.759,9.375,9.375,0,0,1,4.258.881,8.409,8.409,0,0,1,2.86,2.3,9.081,9.081,0,0,1,1.619,3.2,13.414,13.414,0,0,1,.5,3.62V7.34h-15.2a4.781,4.781,0,0,0,.538,2.26,5.649,5.649,0,0,0,1.42,1.74,6.673,6.673,0,0,0,2.042,1.121,7.317,7.317,0,0,0,2.4.4,5.367,5.367,0,0,0,2.92-.778A9.459,9.459,0,0,0-13519,10.02l2.721,2.079a10,10,0,0,1-8.4,3.878A10.394,10.394,0,0,1-13528.741,15.219Zm1.6-15.779a5.9,5.9,0,0,0-1.858,1.3,5.922,5.922,0,0,0-1.18,1.781,4.9,4.9,0,0,0-.42,1.939h11.358a7.5,7.5,0,0,0-.379-2.2,4.832,4.832,0,0,0-1.021-1.74,4.648,4.648,0,0,0-1.7-1.161,6.267,6.267,0,0,0-2.378-.417A5.808,5.808,0,0,0-13527.142-.56Zm-34.338,15.761a10.169,10.169,0,0,1-3.2-2.12,9.8,9.8,0,0,1-2.142-3.16,9.8,9.8,0,0,1-.778-3.9,9.677,9.677,0,0,1,.778-3.882,10.134,10.134,0,0,1,2.142-3.16,9.972,9.972,0,0,1,3.2-2.138,10.052,10.052,0,0,1,3.96-.782,10.033,10.033,0,0,1,3.959.782,9.972,9.972,0,0,1,3.2,2.138,10.184,10.184,0,0,1,2.142,3.16,9.661,9.661,0,0,1,.778,3.882,9.788,9.788,0,0,1-.778,3.9,9.851,9.851,0,0,1-2.142,3.16,10.169,10.169,0,0,1-3.2,2.12,10.031,10.031,0,0,1-3.959.778A10.049,10.049,0,0,1-13561.479,15.2Zm1.36-15.281a5.8,5.8,0,0,0-1.961,1.36,5.983,5.983,0,0,0-1.239,2.079,7.771,7.771,0,0,0-.442,2.662,7.734,7.734,0,0,0,.442,2.658,5.966,5.966,0,0,0,1.239,2.083,5.739,5.739,0,0,0,1.961,1.357,6.46,6.46,0,0,0,2.6.5,6.472,6.472,0,0,0,2.6-.5,5.753,5.753,0,0,0,1.962-1.357,6.023,6.023,0,0,0,1.238-2.083,7.734,7.734,0,0,0,.438-2.658,7.77,7.77,0,0,0-.438-2.662,6.041,6.041,0,0,0-1.238-2.079,5.813,5.813,0,0,0-1.962-1.36,6.535,6.535,0,0,0-2.6-.5A6.523,6.523,0,0,0-13560.119-.081Zm-103.5,15.3a8.84,8.84,0,0,1-3.082-2.1,9.384,9.384,0,0,1-1.939-3.16,11.176,11.176,0,0,1-.679-3.941,10.415,10.415,0,0,1,.737-3.941,9.836,9.836,0,0,1,2.043-3.16,9.338,9.338,0,0,1,3.1-2.1,10,10,0,0,1,3.919-.759,9.381,9.381,0,0,1,4.262.881,8.394,8.394,0,0,1,2.856,2.3,9.09,9.09,0,0,1,1.623,3.2,13.41,13.41,0,0,1,.5,3.62V7.34h-15.2a4.738,4.738,0,0,0,.542,2.26,5.594,5.594,0,0,0,1.42,1.74,6.607,6.607,0,0,0,2.038,1.121,7.351,7.351,0,0,0,2.4.4,5.39,5.39,0,0,0,2.924-.778,9.459,9.459,0,0,0,2.278-2.061l2.721,2.079a10.011,10.011,0,0,1-8.4,3.878A10.394,10.394,0,0,1-13663.619,15.219Zm1.6-15.779a5.943,5.943,0,0,0-1.861,1.3,5.962,5.962,0,0,0-1.181,1.781,4.9,4.9,0,0,0-.42,1.939h11.362a7.6,7.6,0,0,0-.38-2.2,4.872,4.872,0,0,0-1.021-1.74,4.714,4.714,0,0,0-1.7-1.161,6.3,6.3,0,0,0-2.381-.417A5.8,5.8,0,0,0-13662.02-.56Zm81.259,16.059V-3.462h3.6V-.538h.078a5.134,5.134,0,0,1,.962-1.383,6.294,6.294,0,0,1,1.338-1.058,7.053,7.053,0,0,1,1.622-.7,6.186,6.186,0,0,1,1.759-.262,5.085,5.085,0,0,1,1.6.24l-.159,3.882c-.295-.081-.59-.147-.881-.2a5.045,5.045,0,0,0-.881-.077,5.3,5.3,0,0,0-4.037,1.478,6.5,6.5,0,0,0-1.4,4.6V15.5Zm-22.8,0V-12.819h9.962a11.657,11.657,0,0,1,4.479.737,7.657,7.657,0,0,1,2.779,1.88,6.417,6.417,0,0,1,1.419,2.562,10.122,10.122,0,0,1,.4,2.739,10.122,10.122,0,0,1-.4,2.739A6.379,6.379,0,0,1-13586.339.4a7.612,7.612,0,0,1-2.779,1.88,11.652,11.652,0,0,1-4.479.741h-6.12V15.5Zm3.842-15.838h5.04a13.967,13.967,0,0,0,2.219-.181,5.958,5.958,0,0,0,1.958-.66,3.625,3.625,0,0,0,1.383-1.379,4.664,4.664,0,0,0,.52-2.341,4.655,4.655,0,0,0-.52-2.341,3.6,3.6,0,0,0-1.383-1.379,5.874,5.874,0,0,0-1.958-.66,13.548,13.548,0,0,0-2.219-.181h-5.04Zm-28.8,15.838-5-14.157h-.081l-4.516,14.157H-13642l-6.237-18.961h4.036l4.28,14.161h.082l4.52-14.161h3.8l4.8,14.161h.081l4.078-14.161h3.8l-6.12,18.961Zm-49,0V-3.462h3.6V15.5Zm-16.8,0-10.92-28.318h4.438l8.32,23.038h.078l8.642-23.038h4.2l-11.16,28.318ZM-13542.7-8.4a2.534,2.534,0,0,1-.781-1.858,2.554,2.554,0,0,1,.781-1.862,2.534,2.534,0,0,1,1.858-.778,2.536,2.536,0,0,1,1.861.778,2.551,2.551,0,0,1,.778,1.862,2.531,2.531,0,0,1-.778,1.858,2.525,2.525,0,0,1-1.861.782A2.523,2.523,0,0,1-13542.7-8.4Zm-134.882,0a2.531,2.531,0,0,1-.778-1.858,2.551,2.551,0,0,1,.778-1.862,2.536,2.536,0,0,1,1.861-.778,2.534,2.534,0,0,1,1.858.778,2.554,2.554,0,0,1,.781,1.862,2.534,2.534,0,0,1-.781,1.858,2.523,2.523,0,0,1-1.858.782A2.525,2.525,0,0,1-13677.581-8.4Z" transform="translate(13705.238 12.9)"/></svg>
