<svg xmlns="http://www.w3.org/2000/svg" xmlns:xlink="http://www.w3.org/1999/xlink" width="165.034" height="19" viewBox="0 0 165.034 170.933"><defs><linearGradient id="a" x1="0.5" y1="1" x2="0.5" gradientUnits="objectBoundingBox"><stop offset="0" stop-color="#e5e1ab"/><stop offset="1" stop-color="#9cdcaa"/></linearGradient></defs><g transform="translate(-1302.057 -1482)"><circle cx="82.517" cy="82.517" r="82.517" transform="translate(1302.057 1487.899)" fill="url(#a)"/><path d="M42.649,2a6.9,6.9,0,0,0-1.38,13.663v4.281a1.38,1.38,0,1,0,2.761,0V15.663A6.9,6.9,0,0,0,42.649,2Zm0,2.761A4.141,4.141,0,1,1,38.508,8.9,4.146,4.146,0,0,1,42.649,4.761ZM10.9,6.141a6.9,6.9,0,1,0,3.8,12.652L18.207,22.3a1.38,1.38,0,0,0,1.952-1.952l-3.507-3.507a6.888,6.888,0,0,0-5.75-10.7Zm63.494,0a6.888,6.888,0,0,0-5.75,10.7l-3.507,3.507A1.38,1.38,0,1,0,67.09,22.3L70.6,18.793A6.9,6.9,0,1,0,74.4,6.141ZM10.9,8.9a4.141,4.141,0,1,1-4.141,4.141A4.146,4.146,0,0,1,10.9,8.9ZM74.4,8.9a4.141,4.141,0,1,1-4.141,4.141A4.146,4.146,0,0,1,74.4,8.9ZM26.085,24.085a4.146,4.146,0,0,0-4.141,4.141V58.593a4.146,4.146,0,0,0,4.141,4.141H59.212a4.146,4.146,0,0,0,4.141-4.141V28.226a4.146,4.146,0,0,0-4.141-4.141Zm0,2.761H59.212a1.382,1.382,0,0,1,1.38,1.38V58.593a1.381,1.381,0,0,1-1.38,1.38H26.085a1.381,1.381,0,0,1-1.38-1.38V28.226A1.382,1.382,0,0,1,26.085,26.846Zm9.662,5.521a1.38,1.38,0,1,0,0,2.761h13.8a1.38,1.38,0,1,0,0-2.761Zm-6.9,19.324a1.379,1.379,0,0,0-1.38,1.38v2.761a1.38,1.38,0,1,0,2.761,0V53.071A1.379,1.379,0,0,0,28.846,51.691Zm6.9,0a1.379,1.379,0,0,0-1.38,1.38v2.761a1.38,1.38,0,1,0,2.761,0V53.071A1.379,1.379,0,0,0,35.747,51.691Zm6.9,0a1.379,1.379,0,0,0-1.38,1.38v2.761a1.38,1.38,0,1,0,2.761,0V53.071A1.379,1.379,0,0,0,42.649,51.691Zm6.9,0a1.379,1.379,0,0,0-1.38,1.38v2.761a1.38,1.38,0,1,0,2.761,0V53.071A1.379,1.379,0,0,0,49.55,51.691Zm6.9,0a1.379,1.379,0,0,0-1.38,1.38v2.761a1.38,1.38,0,1,0,2.761,0V53.071A1.379,1.379,0,0,0,56.452,51.691ZM19.183,64.114a1.375,1.375,0,0,0-.976.4L14.7,68.026a6.927,6.927,0,1,0,1.952,1.952l3.507-3.507a1.38,1.38,0,0,0-.976-2.356Zm46.931,0a1.38,1.38,0,0,0-.976,2.356l3.507,3.507A6.927,6.927,0,1,0,70.6,68.026L67.09,64.518A1.375,1.375,0,0,0,66.114,64.114Zm-23.465,1.38a1.379,1.379,0,0,0-1.38,1.38v4.281a6.9,6.9,0,1,0,2.761,0V66.875A1.379,1.379,0,0,0,42.649,65.494ZM10.9,69.635a4.141,4.141,0,1,1-4.141,4.141A4.146,4.146,0,0,1,10.9,69.635Zm63.494,0a4.141,4.141,0,1,1-4.141,4.141A4.146,4.146,0,0,1,74.4,69.635ZM42.649,73.776a4.141,4.141,0,1,1-4.141,4.141A4.146,4.146,0,0,1,42.649,73.776Z" transform="translate(1342.108 1527.125)" fill="#fff"/><g transform="translate(1340 1527)" fill="none" stroke="#e5e1ab" stroke-width="2"><circle cx="6" cy="6" r="6" stroke="none"/><circle cx="6" cy="6" r="5" fill="none"/></g><g transform="translate(1430 1560)" fill="none" stroke="#e5e1ab" stroke-width="2"><circle cx="6" cy="6" r="6" stroke="none"/><circle cx="6" cy="6" r="5" fill="none"/></g><g transform="translate(1387 1482)" fill="none" stroke="#e5e1ab" stroke-width="2"><circle cx="6" cy="6" r="6" stroke="none"/><circle cx="6" cy="6" r="5" fill="none"/>
</g>
</g>
</svg>
