<svg xmlns="http://www.w3.org/2000/svg" xmlns:xlink="http://www.w3.org/1999/xlink" width="165.034" height="120" viewBox="0 0 165.034 165.034">
  <defs>
    <linearGradient id="a" x1="0.5" x2="0.5" y2="1" gradientUnits="objectBoundingBox"><stop offset="0" stop-color="#bfb2f3"/><stop offset="1" stop-color="#96caf7"/></linearGradient>
  </defs>
  <g transform="translate(-877.069 -1487.899)"><circle cx="82.517" cy="82.517" r="82.517" transform="translate(877.069 1487.899)" fill="url(#a)"/><path
    d="M44.016,0C25.691,0,12.09,12.177,11.675,28.954a3.87,3.87,0,0,1-.19,1.132L4.472,51.129a2.588,2.588,0,0,0,2.171,3.389l3.869.432a1.29,1.29,0,0,1,1.152,1.284V67.977a6.469,6.469,0,0,0,7.185,6.432l3.751-.417h.005l6.971-.776-.69,5.212a3.881,3.881,0,0,0,3.847,4.393H67.02a3.885,3.885,0,0,0,3.862-4.289L69.022,60.87a8.963,8.963,0,0,1,.847-4.863,63.209,63.209,0,0,0,6.5-27.539C76.366,11.707,63.064,0,44.016,0Zm0,2.588c20.56,0,29.763,13,29.763,25.881a60.621,60.621,0,0,1-6.235,26.4,11.528,11.528,0,0,0-1.094,6.265L68.309,78.8A1.294,1.294,0,0,1,67.02,80.23H32.733a1.294,1.294,0,0,1-1.281-1.463l.773-5.846,4.17-.465a1.293,1.293,0,0,0-.286-2.57l-3.533.392L18.565,71.834a3.875,3.875,0,0,1-3.02-.965,3.831,3.831,0,0,1-1.292-2.891V56.235A3.877,3.877,0,0,0,10.8,52.378l-3.869-.432,7.014-21.041a6.449,6.449,0,0,0,.321-1.888C14.642,13.7,27.154,2.588,44.016,2.588Zm0,3.882a1.3,1.3,0,0,0-1.294,1.294v2.588a1.294,1.294,0,1,0,2.588,0V7.764A1.3,1.3,0,0,0,44.016,6.47Zm-7.024.958a1.277,1.277,0,0,0-.513.033,1.294,1.294,0,0,0-.915,1.585l.67,2.5a1.292,1.292,0,0,0,1.249.958,1.261,1.261,0,0,0,.336-.043,1.3,1.3,0,0,0,.915-1.587l-.67-2.5A1.294,1.294,0,0,0,36.992,7.428Zm14.045,0a1.294,1.294,0,0,0-1.072.948l-.67,2.5a1.3,1.3,0,0,0,.915,1.587,1.316,1.316,0,0,0,.336.043,1.291,1.291,0,0,0,1.249-.958l.67-2.5a1.294,1.294,0,0,0-.915-1.585A1.277,1.277,0,0,0,51.037,7.428ZM29.943,10.206a1.279,1.279,0,0,0-.485.164,1.3,1.3,0,0,0-.473,1.769l1.294,2.239a1.294,1.294,0,0,0,1.122.647,1.281,1.281,0,0,0,.644-.172,1.3,1.3,0,0,0,.473-1.769l-1.294-2.239A1.3,1.3,0,0,0,29.943,10.206Zm28.143,0a1.292,1.292,0,0,0-1.279.637l-1.294,2.242a1.293,1.293,0,1,0,2.239,1.294l1.294-2.242a1.294,1.294,0,0,0-.96-1.931ZM44.453,16.913a1.287,1.287,0,0,0-.478.162,1.3,1.3,0,0,0-.6.786L31.983,60.36a1.293,1.293,0,0,0,.915,1.585l5,1.34a1.292,1.292,0,0,0,1.585-.915L50.87,19.87a1.293,1.293,0,0,0-.915-1.585l-5-1.34A1.283,1.283,0,0,0,44.453,16.913Zm1.084,2.866,2.5.672-10.719,40-2.5-.672Zm-17.05,7.4a1.289,1.289,0,0,0-.915.379L15.926,39.2a1.293,1.293,0,0,0,0,1.83L27.572,52.676a1.294,1.294,0,0,0,1.83,0l3.882-3.882a1.293,1.293,0,0,0,0-1.83l-6.849-6.849,6.849-6.849a1.293,1.293,0,0,0,0-1.83L29.4,27.554A1.289,1.289,0,0,0,28.487,27.175Zm25.881,0a1.289,1.289,0,0,0-.915.379l-3.882,3.882a1.293,1.293,0,0,0,0,1.83l6.849,6.849-6.849,6.849a1.293,1.293,0,0,0,0,1.83l3.882,3.882a1.294,1.294,0,0,0,1.83,0L66.929,41.03a1.293,1.293,0,0,0,0-1.83L55.283,27.554A1.29,1.29,0,0,0,54.368,27.175ZM28.487,30.3l2.052,2.052L23.69,39.2a1.293,1.293,0,0,0,0,1.83l6.849,6.849-2.052,2.052-9.816-9.816Zm25.881,0,9.816,9.816-9.816,9.816-2.052-2.052,6.849-6.849a1.293,1.293,0,0,0,0-1.83l-6.849-6.849Z"
    transform="translate(919.233 1529.125)"
    fill="#fff"/>
    <g transform="translate(906 1499)" fill="none" stroke="#96caf7" stroke-width="2"><circle cx="6" cy="6" r="6" stroke="none"/><circle cx="6" cy="6" r="5" fill="none"/></g>
    <g transform="translate(990 1539)" fill="none" stroke="#96caf7" stroke-width="2"><circle cx="6" cy="6" r="6" stroke="none"/><circle cx="6" cy="6" r="5" fill="none"/>
    </g>
  </g>
</svg>
