<svg xmlns="http://www.w3.org/2000/svg" xmlns:xlink="http://www.w3.org/1999/xlink" width="165" height="20" viewBox="0 0 165 183"><defs><linearGradient id="a" x1="0.5" x2="0.5" y2="1" gradientUnits="objectBoundingBox"><stop offset="0" stop-color="#bfb2f3"/><stop offset="1" stop-color="#96caf7"/></linearGradient><linearGradient id="b" x1="0.5" x2="0.5" y2="1" gradientUnits="objectBoundingBox"><stop offset="0" stop-color="#f3c6a5"/><stop offset="1" stop-color="#f8a3a8"/></linearGradient></defs><g transform="translate(-452.62 -1470)"><circle cx="82.5" cy="82.5" r="82.5" transform="translate(452.62 1488)" fill="url(#a)"/><circle cx="82.5" cy="82.5" r="82.5" transform="translate(452.62 1488)" fill="url(#b)"/><path d="M55.429,3.828a5.763,5.763,0,0,0-4.1,1.7L47.242,9.621a2.324,2.324,0,0,0-3.276,0l-6.553,6.553a2.316,2.316,0,0,0,0,3.276l.054.059L35.676,21.3,19.24,4.86a3.556,3.556,0,0,0-4.919,0L2.858,16.323a3.48,3.48,0,0,0,0,4.919L19.28,37.664,6.1,50.828a3.491,3.491,0,0,0-1.009,2.181l-.783,9.725-.815,5.7a1.156,1.156,0,0,0,1.145,1.321,1.011,1.011,0,0,0,.167-.009l5.706-.815,9.775-.72a3.456,3.456,0,0,0,2.2-1.009L35.667,54.055,52.008,70.391a3.485,3.485,0,0,0,4.915,0L68.389,58.924a3.48,3.48,0,0,0,0-4.919L52.062,37.678l1.792-1.792a2.3,2.3,0,0,0,3.218-.054l6.553-6.553a2.316,2.316,0,0,0,0-3.276l4.1-4.091a5.8,5.8,0,0,0,0-8.2L59.529,5.53A5.757,5.757,0,0,0,55.429,3.828ZM16.778,6.163A1.142,1.142,0,0,1,17.6,6.5l.824.815L15.963,9.77A1.157,1.157,0,1,0,17.6,11.408l2.457-2.457,2.462,2.457-4.1,4.1a1.158,1.158,0,0,0,1.634,1.643l4.1-4.1L26.611,15.5l-2.457,2.462A1.157,1.157,0,0,0,25.792,19.6l2.457-2.453L30.707,19.6l-4.1,4.1a1.157,1.157,0,1,0,1.638,1.634l4.1-4.091,1.692,1.688L20.923,36.03,4.5,19.6a1.153,1.153,0,0,1,0-1.634L15.963,6.5A1.139,1.139,0,0,1,16.778,6.163Zm38.651.018a3.476,3.476,0,0,1,2.462.982l8.191,8.191a3.474,3.474,0,0,1,0,4.915l-4.1,4.1-13.11-13.11,4.1-4.1A3.444,3.444,0,0,1,55.429,6.181ZM45.6,11.259l8.2,8.191,7.372,7.372.819.824-1.638,1.634a1.158,1.158,0,0,0-1.638,0l-1.638,1.643a1.153,1.153,0,0,0,0,1.634L55.438,34.2h0L39.047,17.811l1.638-1.638a1.158,1.158,0,0,0,1.638,0l1.643-1.638a1.158,1.158,0,0,0,0-1.638Zm1.643,5.394a1.151,1.151,0,0,0-.819.339L44.781,18.63a1.16,1.16,0,0,0,1.643,1.638l1.634-1.638a1.158,1.158,0,0,0-.815-1.978Zm4.091,4.1a1.13,1.13,0,0,0-.815.339l-1.643,1.634a1.162,1.162,0,0,0,1.643,1.643l1.634-1.643a1.153,1.153,0,0,0,0-1.634A1.132,1.132,0,0,0,51.333,20.753Zm-12.223.394,13.105,13.11L21.751,64.671l-1.1-5.521L39.866,39.927a1.157,1.157,0,0,0-1.638-1.634L19,57.517l-2.729-.548-.548-2.733L31.675,38.293a1.16,1.16,0,0,0-1.638-1.643L14.094,52.6l-5.4-1.077Zm16.323,3.7a1.145,1.145,0,0,0-.819.344l-1.638,1.634a1.16,1.16,0,1,0,1.638,1.643l1.638-1.643a1.161,1.161,0,0,0-.819-1.978ZM37.409,29.763a1.129,1.129,0,0,0-.815.335l-3.276,3.281a1.15,1.15,0,0,0,0,1.638,1.153,1.153,0,0,0,1.634,0l3.276-3.276a1.156,1.156,0,0,0-.819-1.978ZM50.424,39.32l.765.76-2.462,2.457a1.16,1.16,0,0,0,1.643,1.638l2.453-2.457,2.462,2.457-4.1,4.1a1.158,1.158,0,1,0,1.634,1.643l4.1-4.1,2.457,2.453-2.457,2.457a1.158,1.158,0,0,0,1.634,1.643l2.462-2.457,2.457,2.457-4.1,4.1A1.158,1.158,0,0,0,61.018,58.1L65.108,54l1.643,1.643a1.161,1.161,0,0,1,0,1.634L55.279,68.753a1.187,1.187,0,0,1-1.634,0L37.3,52.412ZM7.365,53.616l6.123,1.222.665,3.344a1.162,1.162,0,0,0,.91.905l3.34.67,1.235,6.182-8.815.647L6.659,62.427Z" transform="translate(499.319 1532.522)" fill="#fff"/><g transform="translate(483 1533)" fill="none" stroke="#f8a3a8" stroke-width="2"><circle cx="6" cy="6" r="6" stroke="none"/><circle cx="6" cy="6" r="5" fill="none"/></g><g transform="translate(546 1470)" fill="none" stroke="#f8a3a8" stroke-width="2"><circle cx="6" cy="6" r="6" stroke="none"/><circle cx="6" cy="6" r="5" fill="none"/></g><g transform="translate(582 1516)" fill="none" stroke="#f8a3a8" stroke-width="2"><circle cx="6" cy="6" r="6" stroke="none"/><circle cx="6" cy="6" r="5" fill="none"/></g></g></svg>
