<svg xmlns="http://www.w3.org/2000/svg" width="531.515" height="503" viewBox="0 0 531.515 503">
  <g id="Group_665" data-name="Group 665" transform="translate(-797 -91)">
    <g id="Group_660" data-name="Group 660" transform="translate(673 -2007)">
      <ellipse id="Ellipse_170" data-name="Ellipse 170" cx="247" cy="251.5" rx="247" ry="251.5" transform="translate(124 2098)" fill="#313639"/>
      <path id="Path_349" data-name="Path 349" d="M112.445-279.805V38.937q0,62.093-29.026,96.687t-80.8,36.96l-15.69-76.877Q36.61,90.977,36.61,38.937V-279.805q15.69,5.914,37.656,5.914a129.659,129.659,0,0,0,19.613-1.478,128.758,128.758,0,0,0,13.859-2.661Z" transform="translate(176 2390.12)" fill="#fff"/>
      <path id="Path_350" data-name="Path 350" d="M126.209-262.186Q95-230.973,95-180.941T126.209-99.7q31.213,31.213,81.245,31.213a117.147,117.147,0,0,0,34.426-5.049q16.524-5.049,27.311-11.934a166.273,166.273,0,0,0,19.049-14q8.262-7.115,11.934-12.164l3.672-5.049h6.885v66.557a49.071,49.071,0,0,1-4.361,4.82q-2.984,2.984-13.311,10.328a146.676,146.676,0,0,1-22.492,13.082Q258.4-16.156,238.9-11.337a168.767,168.767,0,0,1-40.622,4.82q-73.9,0-124.162-50.262T23.85-180.941q0-73.9,50.262-124.162t124.162-50.262a197.447,197.447,0,0,1,44.065,4.82q21.115,4.82,34.655,11.475a217.407,217.407,0,0,1,23.639,13.311q10.1,6.656,14.688,11.246l4.59,5.049-25.246,52.786q-.918-1.377-2.754-3.9t-9.41-8.951a95.25,95.25,0,0,0-16.524-11.246q-8.951-4.82-24.787-8.721a140.653,140.653,0,0,0-33.737-3.9Q157.422-293.4,126.209-262.186Z" transform="translate(335.603 2530.672)" fill="#fff"/>
    </g>
  </g>
</svg>
